<?xml version="1.0" standalone="no"?>
<!DOCTYPE svg PUBLIC "-//W3C//DTD SVG 20010904//EN"
 "http://www.w3.org/TR/2001/REC-SVG-20010904/DTD/svg10.dtd">
<svg version="1.0" xmlns="http://www.w3.org/2000/svg"
 width="314.000000pt" height="314.000000pt" viewBox="0 0 314.000000 314.000000"
 preserveAspectRatio="xMidYMid meet">
<metadata>
Created by potrace 1.14, written by Peter Selinger 2001-2017
</metadata>
<g transform="translate(0.000000,314.000000) scale(0.100000,-0.100000)"
fill="#000000" stroke="none">
<path d="M1497 2767 c-20 -23 -37 -47 -37 -53 0 -7 -7 -14 -15 -18 -8 -3 -15
-10 -15 -16 0 -6 -6 -17 -12 -25 -7 -7 -21 -24 -31 -37 -10 -14 -31 -40 -47
-58 -17 -19 -30 -37 -30 -41 0 -4 -7 -9 -15 -13 -14 -5 -31 1 -110 36 -11 4
-29 10 -40 12 -11 3 -47 17 -80 32 -32 15 -65 27 -72 27 -7 0 -13 4 -13 9 0 4
-8 8 -18 8 -10 0 -23 5 -30 12 -7 7 -12 10 -13 8 0 -3 -2 -13 -5 -22 -2 -10
-6 -26 -8 -35 -3 -10 -5 -18 -6 -18 -2 0 -10 -63 -14 -105 -2 -19 -8 -60 -14
-90 -6 -30 -14 -71 -17 -90 -7 -40 -7 -40 -32 -45 -10 -2 -18 -4 -18 -5 0 -1
-17 -4 -39 -6 -21 -3 -65 -11 -97 -18 -32 -8 -59 -12 -62 -10 -4 5 -137 -23
-144 -30 -6 -6 29 -101 57 -155 10 -21 16 -41 13 -45 -4 -3 0 -6 7 -6 7 0 11
-2 8 -6 -3 -3 7 -35 23 -72 l29 -67 -71 -67 c-39 -38 -76 -68 -82 -68 -6 0 -7
-3 -4 -7 4 -3 -5 -15 -20 -25 -77 -50 -147 -127 -115 -128 4 0 23 -15 43 -33
55 -48 79 -67 84 -67 3 0 13 -8 23 -17 10 -10 44 -40 74 -67 61 -53 61 -50 28
-141 -12 -33 -23 -68 -25 -79 -2 -10 -8 -23 -13 -30 -8 -11 -44 -101 -48 -121
-1 -5 -5 -17 -9 -26 -8 -21 5 -30 53 -35 42 -5 77 -12 77 -14 0 -1 16 -3 35
-5 19 -2 62 -9 95 -16 33 -6 69 -13 80 -15 11 -1 21 -3 23 -4 1 -2 7 -3 12 -4
18 -2 30 -29 18 -43 -6 -7 -7 -13 -2 -13 5 0 10 -19 10 -43 2 -56 33 -111 65
-114 67 -6 204 -2 204 7 0 1 11 3 25 5 14 1 42 9 62 18 20 8 39 13 42 9 3 -3
6 0 6 6 0 7 6 12 13 12 14 0 70 24 97 41 8 5 23 12 33 15 9 4 17 10 17 15 0 5
5 9 11 9 12 0 109 68 121 85 4 5 8 7 8 3 0 -5 18 9 40 30 22 20 45 42 52 48
56 47 278 316 278 336 0 5 4 7 9 4 5 -3 11 2 15 12 3 9 21 37 40 62 19 25 74
104 122 175 173 255 236 334 335 420 42 36 74 55 93 55 8 0 24 18 35 41 12 22
17 38 12 35 -5 -4 -3 6 4 22 31 62 22 84 -37 83 -10 0 -18 3 -18 7 0 4 -10 8
-22 8 -75 5 -97 8 -94 13 2 3 -8 7 -23 8 -25 2 -64 9 -101 18 -8 2 -22 4 -30
4 -27 2 -41 18 -46 52 -2 19 -7 45 -11 59 -5 25 -9 56 -17 140 -5 59 -9 74
-21 82 -6 5 -5 8 2 8 7 0 11 6 9 13 -15 48 -16 49 -31 37 -8 -7 -15 -10 -15
-8 0 3 -28 -5 -62 -18 -35 -12 -93 -34 -130 -47 -38 -14 -68 -23 -68 -20 0 3
-6 0 -13 -6 -8 -6 -17 -8 -20 -4 -4 3 -7 1 -7 -6 0 -8 -7 -11 -15 -7 -8 3 -15
1 -15 -3 0 -16 -27 -6 -54 19 -14 14 -26 31 -26 38 0 6 -7 12 -15 12 -8 0 -15
4 -15 8 0 4 -15 24 -34 44 -18 19 -38 42 -42 50 -5 9 -30 38 -55 66 l-46 51
-36 -42z"/>
<path d="M2565 1952 c-33 -17 -162 -143 -210 -206 -16 -22 -36 -45 -43 -53 -7
-7 -11 -13 -7 -13 3 0 -3 -10 -15 -22 -11 -12 -20 -25 -20 -30 0 -4 -9 -17
-20 -28 -12 -12 -18 -25 -15 -29 2 -5 -2 -12 -11 -15 -8 -3 -12 -10 -9 -16 3
-5 1 -10 -4 -10 -6 0 -11 -7 -11 -15 0 -9 -7 -18 -15 -21 -8 -4 -12 -10 -9
-15 3 -5 1 -9 -3 -9 -5 0 -19 -20 -33 -45 -14 -25 -28 -45 -32 -45 -5 0 -8 -4
-8 -10 0 -9 -43 -71 -86 -123 -8 -9 -14 -19 -14 -22 0 -3 -8 -13 -17 -23 -10
-11 -34 -39 -53 -63 -68 -87 -314 -321 -325 -311 -3 3 -5 -1 -5 -8 0 -7 -3
-11 -6 -8 -3 3 -17 -5 -31 -18 -14 -13 -32 -24 -39 -24 -8 0 -14 -4 -14 -9 0
-5 -13 -14 -30 -21 -16 -7 -30 -17 -30 -22 0 -5 -4 -6 -10 -3 -5 3 -10 1 -10
-4 0 -6 -8 -11 -18 -11 -10 0 -23 -5 -29 -11 -24 -24 -178 -73 -268 -85 -67
-9 -80 -9 -88 1 -5 6 -7 4 -4 -5 2 -8 8 -15 13 -16 5 0 16 -3 24 -7 62 -24
204 -33 275 -17 28 7 57 13 66 15 35 7 137 59 201 101 89 60 262 231 307 304
14 24 20 28 24 16 4 -9 1 -16 -5 -16 -6 0 -8 -3 -5 -7 4 -3 0 -17 -9 -31 -15
-23 -15 -26 9 -46 50 -43 39 -81 -37 -131 -42 -28 -16 -40 30 -13 21 12 42 28
47 35 4 6 13 18 20 25 6 7 13 22 15 33 1 11 4 34 7 50 6 35 -21 92 -47 101
-24 7 -23 15 10 56 15 19 36 47 47 62 56 77 81 113 90 128 18 30 114 173 122
183 4 6 14 22 22 38 8 15 18 27 23 27 4 0 8 9 8 20 0 11 3 20 8 20 4 0 21 23
37 51 47 79 48 82 74 119 38 54 89 109 95 102 3 -3 6 -1 6 5 0 11 40 41 61 45
18 4 36 20 36 33 0 5 4 24 7 42 7 39 0 44 -39 25z"/>
<path d="M2739 1532 c-19 -20 -42 -38 -50 -40 -8 -2 -23 -14 -34 -27 -11 -13
-32 -31 -47 -40 -27 -17 -28 -17 -28 3 0 11 6 22 13 25 9 3 9 9 -1 29 -10 18
-21 25 -40 23 -57 -4 -109 -39 -89 -60 8 -8 14 -9 18 -3 4 6 10 1 14 -11 4
-13 5 -25 2 -28 -10 -9 -42 -10 -59 -1 -23 11 -53 68 -37 68 7 0 9 3 6 7 -4 3
-2 12 4 19 6 8 6 14 0 18 -9 6 -53 -64 -66 -104 -4 -11 -11 -18 -16 -15 -5 4
-9 1 -9 -5 0 -15 -36 -46 -77 -66 -18 -9 -33 -21 -33 -26 0 -5 -5 -6 -12 -2
-7 5 -8 3 -3 -5 4 -8 16 -10 29 -6 11 3 32 8 46 11 14 2 40 20 58 39 l32 35
10 -24 c11 -29 65 -62 75 -46 4 6 10 8 15 5 5 -3 25 11 46 30 21 20 47 35 61
35 22 0 93 44 101 63 2 4 9 7 16 7 6 0 19 8 28 18 10 9 26 25 37 36 20 19 45
76 33 76 -4 -1 -23 -17 -43 -38z"/>
<path d="M2226 1133 c-22 -46 -20 -62 9 -75 21 -10 28 -8 40 8 21 28 18 58 -9
81 l-23 21 -17 -35z"/>
<path d="M2103 1138 c-24 -33 -43 -127 -50 -258 -5 -94 -4 -96 23 -123 32 -32
58 -29 89 11 38 49 55 62 78 62 13 0 33 9 45 20 12 11 32 20 44 20 26 0 47 28
53 71 2 20 -1 29 -11 29 -8 0 -14 -4 -14 -10 0 -18 -22 -10 -27 10 -9 33 -33
24 -34 -12 -2 -73 -3 -73 -34 -74 -48 -1 -55 -3 -55 -17 0 -16 -36 -38 -66
-42 -29 -3 -51 29 -54 76 -1 19 -1 36 0 39 1 3 3 25 5 50 2 25 4 45 5 45 1 0
4 20 6 45 3 25 7 51 9 58 2 6 3 12 1 12 -2 0 -8 -6 -13 -12z"/>
<path d="M2373 694 c4 -7 0 -15 -9 -18 -9 -4 -14 -9 -11 -13 4 -3 -1 -12 -11
-20 -10 -9 -11 -11 -2 -7 13 7 13 5 2 -8 -10 -13 -8 -18 13 -32 19 -12 30 -14
43 -7 9 6 14 11 9 11 -4 0 -1 10 8 23 14 22 13 25 -17 53 -17 16 -28 24 -25
18z"/>
<path d="M2147 639 c-9 -9 -13 -20 -10 -23 4 -3 4 -6 0 -6 -3 0 -13 7 -22 16
-20 21 -39 13 -58 -24 -13 -28 -13 -32 6 -51 l21 -21 28 27 c24 23 28 24 34
10 9 -24 31 -21 46 6 15 26 19 57 7 57 -5 0 -9 6 -9 13 0 19 -26 17 -43 -4z"/>
</g>
</svg>
